<svg width="64" height="64" viewBox="0 0 64 64" fill="none" xmlns="http://www.w3.org/2000/svg">
<path d="M0 16C0 7.16344 7.16344 0 16 0H48C56.8366 0 64 7.16344 64 16V48C64 56.8366 56.8366 64 48 64H16C7.16344 64 0 56.8366 0 48V16Z" fill="white"/>
<path d="M12.5157 17.2275C12.4214 14.5078 14.532 12 17.385 12H46.6187C49.4716 12 51.5822 14.5078 51.4879 17.2275C51.3973 19.8399 51.5149 23.224 52.3633 25.9833C53.2144 28.7512 54.6495 30.5007 57 30.7255V33.2745C54.6495 33.4993 53.2144 35.2488 52.3633 38.0167C51.5149 40.776 51.3973 44.1601 51.4879 46.7726C51.5822 49.4922 49.4716 52 46.6187 52H17.385C14.532 52 12.4214 49.4922 12.5158 46.7726C12.6063 44.1601 12.4887 40.776 11.6402 38.0167C10.7893 35.2488 9.35059 33.4993 7 33.2745V30.7255C9.35049 30.5007 10.7893 28.7512 11.6402 25.9833C12.4887 23.224 12.6063 19.8399 12.5157 17.2275Z" fill="url(#paint0_linear_1_330)"/>
<path d="M33.0843 42.633C37.7031 42.633 40.4864 40.3627 40.4864 36.6178C40.4864 33.7872 38.5005 31.7378 35.5517 31.4134V31.2955C37.7182 30.9417 39.4183 28.9219 39.4183 26.6662C39.4183 23.4522 36.8907 21.3585 33.0392 21.3585H24.3731V42.633H33.0843ZM27.7433 24.0566H32.2268C34.6641 24.0566 36.0481 25.1476 36.0481 27.1231C36.0481 29.2315 34.4384 30.4109 31.5196 30.4109H27.7433V24.0566ZM27.7433 39.9351V32.9321H32.1966C35.3861 32.9321 37.0411 34.1115 37.0411 36.4115C37.0411 38.7114 35.4313 39.9351 32.3922 39.9351H27.7433Z" fill="url(#paint1_linear_1_330)"/>
<defs>
<linearGradient id="paint0_linear_1_330" x1="14.4296" y1="13.0586" x2="58.2532" y2="47.7099" gradientUnits="userSpaceOnUse">
<stop stop-color="#9013FE"/>
<stop offset="1" stop-color="#6610F2"/>
</linearGradient>
<linearGradient id="paint1_linear_1_330" x1="25.8973" y1="22.7588" x2="35.7202" y2="39.3067" gradientUnits="userSpaceOnUse">
<stop stop-color="white"/>
<stop offset="1" stop-color="#F1E5FC"/>
</linearGradient>
</defs>
</svg>
